<?xml version="1.0" standalone="no"?>
 <!DOCTYPE svg PUBLIC "-//W3C//DTD SVG 1.1//EN" 
 "http://www.w3.org/Graphics/SVG/1.1/DTD/svg11.dtd"> 
<svg xmlns="http://www.w3.org/2000/svg" version="1.1" 
    width="10.6553cm" height="1.17602cm" viewBox="0 0 41950 4630 ">
<title>SVG Picture created as wcb-probe-brd.svg date 2015/10/12 02:18:55 </title>
  <desc>Picture generated by PCBNEW </desc>
<g style="fill:#000000; fill-opacity:1;stroke:#000000; stroke-opacity:1;
stroke-linecap:round; stroke-linejoin:round; "
 transform="translate(0 0) scale(1 1)">
</g>
<g style="fill:#000000; fill-opacity:0.0; 
stroke:#000000; stroke-width:-0.000393701; stroke-opacity:1; 
stroke-linecap:round; stroke-linejoin:round;">
</g>
<g style="fill:#840000; fill-opacity:0.0; 
stroke:#840000; stroke-width:-0.000393701; stroke-opacity:1; 
stroke-linecap:round; stroke-linejoin:round;">
</g>
<g style="fill:#840000; fill-opacity:0.0; 
stroke:#840000; stroke-width:0; stroke-opacity:1; 
stroke-linecap:round; stroke-linejoin:round;">
</g>
<g style="fill:#840000; fill-opacity:1.0; 
stroke:#840000; stroke-width:0; stroke-opacity:1; 
stroke-linecap:round; stroke-linejoin:round;">
<polyline style="fill-rule:evenodd;"
points="38581,2788
38581,1908
39461,1908
39461,2788
38581,2788
" /> 
</g>
<g style="fill:#FFFFFF; fill-opacity:1.0; 
stroke:#FFFFFF; stroke-width:0; stroke-opacity:1; 
stroke-linecap:round; stroke-linejoin:round;">
<circle cx="39021.7" cy="2348.43" r="200" /> 
</g>
<g style="fill:#FFFFFF; fill-opacity:1.0; 
stroke:#FFFFFF; stroke-width:39.3701; stroke-opacity:1; 
stroke-linecap:round; stroke-linejoin:round;">
</g>
<g style="fill:#000000; fill-opacity:1.0; 
stroke:#000000; stroke-width:39.3701; stroke-opacity:1; 
stroke-linecap:round; stroke-linejoin:round;">
</g>
<g style="fill:#840000; fill-opacity:1.0; 
stroke:#840000; stroke-width:39.3701; stroke-opacity:1; 
stroke-linecap:round; stroke-linejoin:round;">
</g>
<g style="fill:#840000; fill-opacity:1.0; 
stroke:#840000; stroke-width:0; stroke-opacity:1; 
stroke-linecap:round; stroke-linejoin:round;">
<polyline style="fill-rule:evenodd;"
points="5753,2643
5753,2053
9690,2053
9690,2643
5753,2643
" /> 
<polyline style="fill-rule:evenodd;"
points="38581,2788
38581,1908
39461,1908
39461,2788
38581,2788
" /> 
</g>
<g style="fill:#840000; fill-opacity:1.0; 
stroke:#840000; stroke-width:200; stroke-opacity:1; 
stroke-linecap:round; stroke-linejoin:round;">
</g>
<g style="fill:#840000; fill-opacity:0.0; 
stroke:#840000; stroke-width:200; stroke-opacity:1; 
stroke-linecap:round; stroke-linejoin:round;">
<path d="M7722 2348
L39021 2348
" />
</g>
<g style="fill:#FFFFFF; fill-opacity:0.0; 
stroke:#FFFFFF; stroke-width:200; stroke-opacity:1; 
stroke-linecap:round; stroke-linejoin:round;">
</g>
<g style="fill:#FFFFFF; fill-opacity:1.0; 
stroke:#FFFFFF; stroke-width:0; stroke-opacity:1; 
stroke-linecap:round; stroke-linejoin:round;">
<circle cx="39021.7" cy="2348.43" r="200" /> 
</g>
<g style="fill:#FFFFFF; fill-opacity:1.0; 
stroke:#FFFFFF; stroke-width:39.3701; stroke-opacity:1; 
stroke-linecap:round; stroke-linejoin:round;">
</g>
<g style="fill:#000000; fill-opacity:1.0; 
stroke:#000000; stroke-width:39.3701; stroke-opacity:1; 
stroke-linecap:round; stroke-linejoin:round;">
</g>
<g style="fill:#008484; fill-opacity:1.0; 
stroke:#008484; stroke-width:39.3701; stroke-opacity:1; 
stroke-linecap:round; stroke-linejoin:round;">
</g>
<g style="fill:#008484; fill-opacity:0.0; 
stroke:#008484; stroke-width:39.3701; stroke-opacity:1; 
stroke-linecap:round; stroke-linejoin:round;">
</g>
<g style="fill:#008484; fill-opacity:0.0; 
stroke:#008484; stroke-width:118.11; stroke-opacity:1; 
stroke-linecap:round; stroke-linejoin:round;">
<path d="M30697 1434
L30838 1828
L30978 1434
" />
<path d="M31428 1800
L31372 1828
L31260 1828
L31203 1800
L31175 1743
L31175 1518
L31203 1462
L31260 1434
L31372 1434
L31428 1462
L31456 1518
L31456 1575
L31175 1631
" />
<path d="M31710 1828
L31710 1434
" />
<path d="M31710 1546
L31738 1490
L31766 1462
L31822 1434
L31878 1434
" />
<path d="M32047 1800
L32103 1828
L32216 1828
L32272 1800
L32300 1743
L32300 1715
L32272 1659
L32216 1631
L32131 1631
L32075 1603
L32047 1546
L32047 1518
L32075 1462
L32131 1434
L32216 1434
L32272 1462
" />
<path d="M32553 1828
L32553 1434
" />
<path d="M32553 1237
L32525 1265
L32553 1293
L32581 1265
L32553 1237
L32553 1293
" />
<path d="M32919 1828
L32863 1800
L32834 1771
L32806 1715
L32806 1546
L32834 1490
L32863 1462
L32919 1434
L33003 1434
L33059 1462
L33088 1490
L33116 1546
L33116 1715
L33088 1771
L33059 1800
L33003 1828
L32919 1828
" />
<path d="M33369 1434
L33369 1828
" />
<path d="M33369 1490
L33397 1462
L33453 1434
L33537 1434
L33594 1462
L33622 1518
L33622 1828
" />
<path d="M34465 1237
L34522 1237
L34578 1265
L34606 1293
L34634 1350
L34662 1462
L34662 1603
L34634 1715
L34606 1771
L34578 1800
L34522 1828
L34465 1828
L34409 1800
L34381 1771
L34353 1715
L34325 1603
L34325 1462
L34353 1350
L34381 1293
L34409 1265
L34465 1237
" />
<path d="M34915 1771
L34944 1800
L34915 1828
L34887 1800
L34915 1771
L34915 1828
" />
<path d="M35506 1828
L35169 1828
" />
<path d="M35337 1828
L35337 1237
L35281 1321
L35225 1378
L35169 1406
" />
<path d="M24032 2812
L24173 3402
L24285 2981
L24398 3402
L24539 2812
" />
<path d="M25017 3402
L25017 3093
L24989 3037
L24932 3009
L24820 3009
L24764 3037
" />
<path d="M25017 3374
L24960 3402
L24820 3402
L24764 3374
L24735 3318
L24735 3262
L24764 3206
L24820 3178
L24960 3178
L25017 3149
" />
<path d="M25214 3009
L25438 3009
" />
<path d="M25298 2812
L25298 3318
L25326 3374
L25382 3402
L25438 3402
" />
<path d="M25860 3374
L25804 3402
L25692 3402
L25635 3374
L25607 3318
L25607 3093
L25635 3037
L25692 3009
L25804 3009
L25860 3037
L25888 3093
L25888 3149
L25607 3206
" />
<path d="M26142 3402
L26142 3009
" />
<path d="M26142 3121
L26170 3065
L26198 3037
L26254 3009
L26310 3009
" />
<path d="M26845 3346
L26816 3374
L26732 3402
L26676 3402
L26591 3374
L26535 3318
L26507 3262
L26479 3149
L26479 3065
L26507 2953
L26535 2896
L26591 2840
L26676 2812
L26732 2812
L26816 2840
L26845 2868
" />
<path d="M27182 3402
L27126 3374
L27098 3346
L27070 3290
L27070 3121
L27098 3065
L27126 3037
L27182 3009
L27266 3009
L27323 3037
L27351 3065
L27379 3121
L27379 3290
L27351 3346
L27323 3374
L27266 3402
L27182 3402
" />
<path d="M27716 3402
L27660 3374
L27632 3318
L27632 2812
" />
<path d="M28026 3402
L27969 3374
L27941 3346
L27913 3290
L27913 3121
L27941 3065
L27969 3037
L28026 3009
L28110 3009
L28166 3037
L28194 3065
L28223 3121
L28223 3290
L28194 3346
L28166 3374
L28110 3402
L28026 3402
" />
<path d="M28476 3402
L28476 3009
" />
<path d="M28476 3121
L28504 3065
L28532 3037
L28588 3009
L28644 3009
" />
<path d="M29038 3093
L29122 3121
L29151 3149
L29179 3206
L29179 3290
L29151 3346
L29122 3374
L29066 3402
L28841 3402
L28841 2812
L29038 2812
L29094 2840
L29122 2868
L29151 2924
L29151 2981
L29122 3037
L29094 3065
L29038 3093
L28841 3093
" />
<path d="M29516 3402
L29460 3374
L29432 3346
L29404 3290
L29404 3121
L29432 3065
L29460 3037
L29516 3009
L29600 3009
L29657 3037
L29685 3065
L29713 3121
L29713 3290
L29685 3346
L29657 3374
L29600 3402
L29516 3402
" />
<path d="M29882 3009
L30107 3009
" />
<path d="M29966 2812
L29966 3318
L29994 3374
L30050 3402
L30107 3402
" />
<path d="M30669 3009
L30894 3009
" />
<path d="M30753 3402
L30753 2896
L30782 2840
L30838 2812
L30894 2812
" />
<path d="M31175 3402
L31119 3374
L31091 3318
L31091 2812
" />
<path d="M31344 3009
L31485 3402
" />
<path d="M31625 3009
L31485 3402
L31428 3543
L31400 3571
L31344 3599
" />
<path d="M31850 3402
L31850 3009
" />
<path d="M31850 2812
L31822 2840
L31850 2868
L31878 2840
L31850 2812
L31850 2868
" />
<path d="M32131 3009
L32131 3402
" />
<path d="M32131 3065
L32160 3037
L32216 3009
L32300 3009
L32356 3037
L32384 3093
L32384 3402
" />
<path d="M32919 3009
L32919 3487
L32891 3543
L32863 3571
L32806 3599
L32722 3599
L32666 3571
" />
<path d="M32919 3374
L32863 3402
L32750 3402
L32694 3374
L32666 3346
L32638 3290
L32638 3121
L32666 3065
L32694 3037
L32750 3009
L32863 3009
L32919 3037
" />
<path d="M33650 3009
L33650 3599
" />
<path d="M33650 3037
L33706 3009
L33819 3009
L33875 3037
L33903 3065
L33931 3121
L33931 3290
L33903 3346
L33875 3374
L33819 3402
L33706 3402
L33650 3374
" />
<path d="M34184 3402
L34184 3009
" />
<path d="M34184 3121
L34212 3065
L34241 3037
L34297 3009
L34353 3009
" />
<path d="M34634 3402
L34578 3374
L34550 3346
L34522 3290
L34522 3121
L34550 3065
L34578 3037
L34634 3009
L34719 3009
L34775 3037
L34803 3065
L34831 3121
L34831 3290
L34803 3346
L34775 3374
L34719 3402
L34634 3402
" />
<path d="M35084 3402
L35084 2812
" />
<path d="M35084 3037
L35140 3009
L35253 3009
L35309 3037
L35337 3065
L35365 3121
L35365 3290
L35337 3346
L35309 3374
L35253 3402
L35140 3402
L35084 3374
" />
<path d="M35843 3374
L35787 3402
L35675 3402
L35618 3374
L35590 3318
L35590 3093
L35618 3037
L35675 3009
L35787 3009
L35843 3037
L35872 3093
L35872 3149
L35590 3206
" />
</g>
<g style="fill:#008484; fill-opacity:0.0; 
stroke:#008484; stroke-width:59.0551; stroke-opacity:1; 
stroke-linecap:round; stroke-linejoin:round;">
<path d="M39631 1738
L39631 2348
" />
<path d="M38411 2348
L38411 1738
" />
<path d="M38411 1738
L39631 1738
" />
<path d="M38521 2848
L39521 2848
" />
</g>
<g style="fill:#C2C200; fill-opacity:0.0; 
stroke:#C2C200; stroke-width:59.0551; stroke-opacity:1; 
stroke-linecap:round; stroke-linejoin:round;">
<path d="M10581 2526
L10581 2132
L10731 2132
L10768 2151
L10787 2170
L10806 2207
L10806 2264
L10787 2301
L10768 2320
L10731 2339
L10581 2339
" />
<path d="M11181 2526
L10956 2526
" />
<path d="M11068 2526
L11068 2132
L11031 2189
L10993 2226
L10956 2245
" />
<path d="M38731 1542
L38731 1148
L38881 1148
L38918 1167
L38937 1186
L38956 1223
L38956 1279
L38937 1317
L38918 1336
L38881 1354
L38731 1354
" />
<path d="M39106 1186
L39124 1167
L39162 1148
L39256 1148
L39293 1167
L39312 1186
L39330 1223
L39330 1261
L39312 1317
L39087 1542
L39330 1542
" />
</g>
<g style="fill:#000000; fill-opacity:0.0; 
stroke:#000000; stroke-width:59.0551; stroke-opacity:1; 
stroke-linecap:round; stroke-linejoin:round;">
</g>
<g style="fill:#848484; fill-opacity:0.0; 
stroke:#848484; stroke-width:59.0551; stroke-opacity:1; 
stroke-linecap:round; stroke-linejoin:round;">
<path d="M9789 1954
L1029 1954
" />
<path d="M1029 1954
L1029 2742
" />
<path d="M1029 2742
L9789 2742
" />
<path d="M9789 2742
L9789 1954
" />
</g>
<g style="fill:#848484; fill-opacity:0.0; 
stroke:#848484; stroke-width:19.685; stroke-opacity:1; 
stroke-linecap:round; stroke-linejoin:round;">
<path d="M38332 1659
L38332 3037
" />
<path d="M39710 1659
L39710 3037
" />
<path d="M38332 1659
L39710 1659
" />
<path d="M38332 3037
L39710 3037
" />
</g>
<g style="fill:#000000; fill-opacity:0.0; 
stroke:#000000; stroke-width:19.685; stroke-opacity:1; 
stroke-linecap:round; stroke-linejoin:round;">
</g>
<g style="fill:#C2C200; fill-opacity:0.0; 
stroke:#C2C200; stroke-width:19.685; stroke-opacity:1; 
stroke-linecap:round; stroke-linejoin:round;">
</g>
<g style="fill:#C2C200; fill-opacity:0.0; 
stroke:#C2C200; stroke-width:59.0551; stroke-opacity:1; 
stroke-linecap:round; stroke-linejoin:round;">
<path d="M40990 773
L40990 3923
" />
<path d="M5557 773
L5557 3923
" />
<path d="M5557 773
L40990 773
" />
<path d="M5557 3923
L40990 3923
" />
</g> 
</svg>
